# Blender v2.83.0 OBJ File: ''
# www.blender.org
mtllib Test1.mtl
o Cube_Cube.001
v -0.370827 -0.370827 1.000000
v -0.370827 0.370827 1.000000
v -0.370827 -0.370827 -1.000000
v -0.370827 0.370827 -1.000000
v 0.370827 -0.370827 1.000000
v 0.370827 0.370827 1.000000
v 0.370827 -0.370827 -1.000000
v 0.370827 0.370827 -1.000000
v -1.000000 -1.000000 1.000000
v -1.000000 1.000000 1.000000
v -1.000000 1.000000 -1.000000
v -1.000000 -1.000000 -1.000000
v 1.000000 -1.000000 -1.000000
v 1.000000 1.000000 -1.000000
v 1.000000 1.000000 1.000000
v 1.000000 -1.000000 1.000000
v -0.370827 -0.370827 1.701310
v -0.370827 0.370827 1.701310
v -0.370827 0.370827 -1.701310
v -0.370827 -0.370827 -1.701310
v 0.370827 -0.370827 -1.701310
v 0.370827 0.370827 -1.701310
v 0.370827 0.370827 1.701310
v 0.370827 -0.370827 1.701310
vt 0.375000 0.000000
vt 0.625000 0.000000
vt 0.625000 0.250000
vt 0.375000 0.250000
vt 0.453647 0.828647
vt 0.546353 0.828647
vt 0.546353 0.828647
vt 0.453647 0.828647
vt 0.375000 0.500000
vt 0.625000 0.500000
vt 0.625000 0.750000
vt 0.375000 0.750000
vt 0.546353 0.921353
vt 0.546353 0.921353
vt 0.125000 0.500000
vt 0.125000 0.750000
vt 0.875000 0.500000
vt 0.875000 0.750000
vt 0.453647 0.921353
vt 0.625000 1.000000
vt 0.375000 1.000000
vt 0.546353 0.328647
vt 0.453647 0.328647
vt 0.453647 0.421353
vt 0.546353 0.421353
vt 0.453647 0.328647
vt 0.546353 0.328647
vt 0.546353 0.421353
vt 0.453647 0.421353
vt 0.453647 0.921353
vn -1.0000 0.0000 0.0000
vn 1.0000 0.0000 0.0000
vn 0.0000 1.0000 0.0000
vn 0.0000 -1.0000 0.0000
vn 0.0000 0.0000 1.0000
vn 0.0000 0.0000 -1.0000
usemtl None
s off
f 9/1/1 10/2/1 11/3/1 12/4/1
f 5/5/2 6/6/2 23/7/2 24/8/2
f 13/9/2 14/10/2 15/11/2 16/12/2
f 6/6/3 2/13/3 18/14/3 23/7/3
f 12/15/4 13/9/4 16/12/4 9/16/4
f 14/10/3 11/17/3 10/18/3 15/11/3
f 1/19/5 2/13/5 10/20/5 9/21/5
f 4/22/6 3/23/6 12/4/6 11/3/6
f 3/23/6 7/24/6 13/9/6 12/4/6
f 8/25/6 4/22/6 11/3/6 14/10/6
f 7/24/6 8/25/6 14/10/6 13/9/6
f 6/6/5 5/5/5 16/12/5 15/11/5
f 5/5/5 1/19/5 9/21/5 16/12/5
f 2/13/5 6/6/5 15/11/5 10/20/5
f 20/26/6 19/27/6 22/28/6 21/29/6
f 24/8/5 23/7/5 18/14/5 17/30/5
f 4/22/3 8/25/3 22/28/3 19/27/3
f 3/23/1 4/22/1 19/27/1 20/26/1
f 1/19/4 5/5/4 24/8/4 17/30/4
f 8/25/2 7/24/2 21/29/2 22/28/2
f 7/24/4 3/23/4 20/26/4 21/29/4
f 2/13/1 1/19/1 17/30/1 18/14/1
